<svg width="41" height="41" viewBox="0 0 41 41" fill="none" xmlns="http://www.w3.org/2000/svg">
<path d="M35.2737 4.56836L22.4692 14.0784L24.8371 8.46761L35.2737 4.56836Z" fill="#E2761B" stroke="#E2761B" stroke-linecap="round" stroke-linejoin="round"/>
<path d="M5.71338 4.56836L18.4149 14.1685L16.1628 8.46761L5.71338 4.56836Z" fill="#E4761B" stroke="#E4761B" stroke-linecap="round" stroke-linejoin="round"/>
<path d="M30.6661 26.6127L27.2559 31.8374L34.5525 33.8449L36.6501 26.7285L30.6661 26.6127Z" fill="#E4761B" stroke="#E4761B" stroke-linecap="round" stroke-linejoin="round"/>
<path d="M4.3623 26.7285L6.44705 33.8449L13.7437 31.8374L10.3334 26.6127L4.3623 26.7285Z" fill="#E4761B" stroke="#E4761B" stroke-linecap="round" stroke-linejoin="round"/>
<path d="M13.3316 17.7846L11.2983 20.8603L18.5435 21.182L18.2861 13.3964L13.3316 17.7846Z" fill="#E4761B" stroke="#E4761B" stroke-linecap="round" stroke-linejoin="round"/>
<path d="M27.6549 17.7846L22.636 13.3063L22.4688 21.182L29.701 20.8603L27.6549 17.7846Z" fill="#E4761B" stroke="#E4761B" stroke-linecap="round" stroke-linejoin="round"/>
<path d="M13.7432 31.8373L18.0928 29.714L14.3351 26.7799L13.7432 31.8373Z" fill="#E4761B" stroke="#E4761B" stroke-linecap="round" stroke-linejoin="round"/>
<path d="M22.8936 29.714L27.2561 31.8373L26.6512 26.7799L22.8936 29.714Z" fill="#E4761B" stroke="#E4761B" stroke-linecap="round" stroke-linejoin="round"/>
<path d="M27.2566 31.8375L22.894 29.7141L23.2415 32.5581L23.2029 33.7549L27.2566 31.8375Z" fill="#D7C1B3" stroke="#D7C1B3" stroke-linecap="round" stroke-linejoin="round"/>
<path d="M13.7441 31.8375L17.7978 33.7549L17.7721 32.5581L18.0938 29.7141L13.7441 31.8375Z" fill="#D7C1B3" stroke="#D7C1B3" stroke-linecap="round" stroke-linejoin="round"/>
<path d="M17.8619 24.9012L14.2329 23.833L16.7938 22.662L17.8619 24.9012Z" fill="#233447" stroke="#233447" stroke-linecap="round" stroke-linejoin="round"/>
<path d="M23.1255 24.9012L24.1936 22.662L26.7674 23.833L23.1255 24.9012Z" fill="#233447" stroke="#233447" stroke-linecap="round" stroke-linejoin="round"/>
<path d="M13.7437 31.8374L14.3614 26.6127L10.3335 26.7285L13.7437 31.8374Z" fill="#CD6116" stroke="#CD6116" stroke-linecap="round" stroke-linejoin="round"/>
<path d="M26.6382 26.6127L27.2559 31.8374L30.6661 26.7285L26.6382 26.6127Z" fill="#CD6116" stroke="#CD6116" stroke-linecap="round" stroke-linejoin="round"/>
<path d="M29.701 20.8604L22.4688 21.1821L23.1379 24.9012L24.206 22.662L26.7798 23.833L29.701 20.8604Z" fill="#CD6116" stroke="#CD6116" stroke-linecap="round" stroke-linejoin="round"/>
<path d="M14.2324 23.833L16.8062 22.662L17.8614 24.9012L18.5435 21.1821L11.2983 20.8604L14.2324 23.833Z" fill="#CD6116" stroke="#CD6116" stroke-linecap="round" stroke-linejoin="round"/>
<path d="M11.2988 20.8604L14.3359 26.78L14.2329 23.833L11.2988 20.8604Z" fill="#E4751F" stroke="#E4751F" stroke-linecap="round" stroke-linejoin="round"/>
<path d="M26.7801 23.833L26.6514 26.78L29.7013 20.8604L26.7801 23.833Z" fill="#E4751F" stroke="#E4751F" stroke-linecap="round" stroke-linejoin="round"/>
<path d="M18.5439 21.1821L17.8618 24.9012L18.7112 29.2895L18.9042 23.5114L18.5439 21.1821Z" fill="#E4751F" stroke="#E4751F" stroke-linecap="round" stroke-linejoin="round"/>
<path d="M22.4695 21.1821L22.1221 23.4985L22.2765 29.2895L23.1387 24.9012L22.4695 21.1821Z" fill="#E4751F" stroke="#E4751F" stroke-linecap="round" stroke-linejoin="round"/>
<path d="M23.1386 24.9011L22.2764 29.2894L22.8941 29.7141L26.6518 26.78L26.7804 23.833L23.1386 24.9011Z" fill="#F6851B" stroke="#F6851B" stroke-linecap="round" stroke-linejoin="round"/>
<path d="M14.2329 23.833L14.3359 26.78L18.0935 29.7141L18.7112 29.2894L17.8619 24.9011L14.2329 23.833Z" fill="#F6851B" stroke="#F6851B" stroke-linecap="round" stroke-linejoin="round"/>
<path d="M23.2027 33.7549L23.2413 32.5581L22.9196 32.2749H18.0681L17.7721 32.5581L17.7978 33.7549L13.7441 31.8374L15.1597 32.9956L18.0295 34.9903H22.9582L25.8408 32.9956L27.2564 31.8374L23.2027 33.7549Z" fill="#C0AD9E" stroke="#C0AD9E" stroke-linecap="round" stroke-linejoin="round"/>
<path d="M22.8938 29.7141L22.2761 29.2894H18.7114L18.0937 29.7141L17.772 32.5581L18.068 32.275H22.9195L23.2412 32.5581L22.8938 29.7141Z" fill="#161616" stroke="#161616" stroke-linecap="round" stroke-linejoin="round"/>
<path d="M35.8143 14.6961L36.9082 9.44563L35.2738 4.56836L22.894 13.7567L27.6555 17.7846L34.3859 19.7535L35.8787 18.0163L35.2352 17.553L36.2647 16.6136L35.4669 15.9959L36.4964 15.2109L35.8143 14.6961Z" fill="#763D16" stroke="#763D16" stroke-linecap="round" stroke-linejoin="round"/>
<path d="M4.09277 9.44563L5.18662 14.6961L4.49171 15.2109L5.52121 15.9959L4.73621 16.6136L5.76572 17.553L5.12228 18.0163L6.60219 19.7535L13.3326 17.7846L18.094 13.7567L5.71424 4.56836L4.09277 9.44563Z" fill="#763D16" stroke="#763D16" stroke-linecap="round" stroke-linejoin="round"/>
<path d="M34.386 19.7536L27.6556 17.7847L29.7018 20.8603L26.6519 26.78L30.6669 26.7285H36.6509L34.386 19.7536Z" fill="#F6851B" stroke="#F6851B" stroke-linecap="round" stroke-linejoin="round"/>
<path d="M13.3319 17.7847L6.60148 19.7536L4.3623 26.7285H10.3334L14.3356 26.78L11.2986 20.8603L13.3319 17.7847Z" fill="#F6851B" stroke="#F6851B" stroke-linecap="round" stroke-linejoin="round"/>
<path d="M22.4693 21.182L22.894 13.7567L24.85 8.46765H16.1636L18.0939 13.7567L18.5443 21.182L18.6987 23.5241L18.7116 29.2894H22.2763L22.302 23.5241L22.4693 21.182Z" fill="#F6851B" stroke="#F6851B" stroke-linecap="round" stroke-linejoin="round"/>
</svg>
