<svg width="49" height="39" viewBox="0 0 49 39" fill="none" xmlns="http://www.w3.org/2000/svg">
<path d="M48.1152 0.100653C46.0341 1.55655 43.7298 2.67007 41.2911 3.39835C39.9822 1.90579 38.2427 0.847897 36.3078 0.367758C34.3729 -0.112381 32.336 0.00839451 30.4726 0.713751C28.6092 1.41911 27.0091 2.67501 25.8889 4.31161C24.7687 5.9482 24.1822 7.88652 24.209 9.86441V12.0198C20.3897 12.118 16.6052 11.2779 13.1926 9.5744C9.77992 7.87088 6.84504 5.35678 4.64932 2.25601C4.64932 2.25601 -4.04386 21.6542 15.5158 30.2756C11.04 33.2887 5.70806 34.7996 0.302734 34.5863C19.8624 45.3631 43.7686 34.5863 43.7686 9.79975C43.7666 9.19938 43.7084 8.6005 43.5948 8.01081C45.8129 5.84143 47.3781 3.10244 48.1152 0.100653Z" fill="white"/>
</svg>
