<svg width="40" height="40" viewBox="0 0 40 40" fill="none" xmlns="http://www.w3.org/2000/svg">
<path d="M23.3335 3.33301H10.0002C9.11612 3.33301 8.26827 3.6842 7.64315 4.30932C7.01803 4.93444 6.66684 5.78229 6.66684 6.66634V33.333C6.66684 34.2171 7.01803 35.0649 7.64315 35.69C8.26827 36.3152 9.11612 36.6663 10.0002 36.6663H30.0002C30.8842 36.6663 31.7321 36.3152 32.3572 35.69C32.9823 35.0649 33.3335 34.2171 33.3335 33.333V13.333L23.3335 3.33301Z" stroke="#F1B4E6" stroke-width="1.3" stroke-linecap="round" stroke-linejoin="round"/>
<path d="M23.3332 3.33301V13.333H33.3332" stroke="#F1B4E6" stroke-width="1.3" stroke-linecap="round" stroke-linejoin="round"/>
<path d="M26.6665 21.667H13.3332" stroke="#F1B4E6" stroke-width="1.3" stroke-linecap="round" stroke-linejoin="round"/>
<path d="M26.6665 28.333H13.3332" stroke="#F1B4E6" stroke-width="1.3" stroke-linecap="round" stroke-linejoin="round"/>
<path d="M16.6665 15H14.9998H13.3332" stroke="#F1B4E6" stroke-width="1.3" stroke-linecap="round" stroke-linejoin="round"/>
</svg>
