<svg width="40" height="40" viewBox="0 0 40 40" fill="none" xmlns="http://www.w3.org/2000/svg">
<path d="M31.6667 5H8.33333C6.49238 5 5 6.49238 5 8.33333V31.6667C5 33.5076 6.49238 35 8.33333 35H31.6667C33.5076 35 35 33.5076 35 31.6667V8.33333C35 6.49238 33.5076 5 31.6667 5Z" stroke="#F1B4E6" stroke-width="1.3" stroke-linecap="round" stroke-linejoin="round"/>
<path d="M14.1669 16.667C15.5476 16.667 16.6669 15.5477 16.6669 14.167C16.6669 12.7863 15.5476 11.667 14.1669 11.667C12.7862 11.667 11.6669 12.7863 11.6669 14.167C11.6669 15.5477 12.7862 16.667 14.1669 16.667Z" stroke="#F1B4E6" stroke-width="1.3" stroke-linecap="round" stroke-linejoin="round"/>
<path d="M34.9998 25.0003L26.6665 16.667L8.33313 35.0003" stroke="#F1B4E6" stroke-width="1.3" stroke-linecap="round" stroke-linejoin="round"/>
</svg>
