<svg version="1.0" xmlns="http://www.w3.org/2000/svg"
 width="96.000000pt" height="96.000000pt" viewBox="0 0 96.000000 96.000000"
 preserveAspectRatio="xMidYMid meet">

<g transform="translate(0.000000,96.000000) scale(0.100000,-0.100000)"
fill="#000000" stroke="none">
<path d="M300 675 c-85 -58 -154 -110 -152 -116 3 -12 -34 6 -43 21 -3 6 -10
10 -16 10 -22 0 -4 -18 62 -64 l72 -49 -24 -17 -23 -18 123 -81 c96 -64 125
-78 135 -69 9 9 10 16 2 24 -8 9 -13 8 -19 -5 -5 -12 -6 -11 -3 5 2 15 -4 26
-20 35 -13 7 -22 14 -20 16 2 2 26 -10 54 -27 60 -38 40 -46 252 100 184 128
238 171 123 99 l-83 -51 -38 29 c-40 30 -46 48 -22 63 10 7 11 13 4 18 -5 4
-44 31 -86 60 -73 51 -76 55 -68 82 9 30 -1 40 -39 40 -9 0 -86 -47 -171 -105z"/>
</g>
</svg>
