<svg width="256" height="256" viewBox="0 0 256 256" fill="none" xmlns="http://www.w3.org/2000/svg">
<g clip-path="url(#clip0_1713_1956)">
<circle cx="128" cy="128" r="128" fill="white"/>
<g clip-path="url(#clip1_1713_1956)">
<path d="M141.585 184.676C131.817 187.014 121.611 186.818 111.941 184.106C102.27 181.394 93.4591 176.257 86.3462 169.184C76.9293 160.219 70.876 148.309 69.1938 135.436C67.5117 122.563 70.3022 109.505 77.1009 98.4339C81.5658 91.2168 86.9449 84.6038 93.1054 78.7581C112.658 59.3407 148.551 24.0175 148.551 24.0175C121.868 18.7423 94.1716 23.9029 71.2001 38.4301C48.2282 52.9574 31.7411 75.7382 25.1536 102.054C18.5661 128.369 22.3832 156.203 35.8142 179.789C49.2452 203.375 71.2608 220.907 97.301 228.752L141.585 184.676Z" fill="black"/>
<path d="M114.316 70.5215C124.083 68.1805 134.29 68.3755 143.96 71.0878C153.631 73.8 162.443 78.9391 169.554 86.0142C188.925 105.328 192.706 133.99 178.721 156.661C174.249 163.879 168.871 170.501 162.717 176.362C143.165 195.753 107.271 231.102 107.271 231.102C133.979 236.429 161.719 231.297 184.73 216.77C207.742 202.241 224.259 179.436 230.85 153.087C237.443 126.737 233.603 98.8683 220.13 75.2672C206.657 51.6658 184.584 34.1448 158.496 26.3418L114.316 70.5215Z" fill="black"/>
</g>
</g>
<defs>
<clipPath id="clip0_1713_1956">
<rect width="256" height="256" fill="white"/>
</clipPath>
<clipPath id="clip1_1713_1956">
<rect width="212" height="212" fill="white" transform="translate(22 22)"/>
</clipPath>
</defs>
</svg>
