<svg width="18" height="16" viewBox="0 0 18 16" fill="none" xmlns="http://www.w3.org/2000/svg">
<path d="M14.3333 4.59375V3.89375C14.3333 2.91366 14.3333 2.42361 14.1396 2.04927C13.9692 1.71998 13.6972 1.45226 13.3627 1.28449C12.9824 1.09375 12.4845 1.09375 11.4889 1.09375H3.84444C2.84879 1.09375 2.35097 1.09375 1.97068 1.28449C1.63617 1.45226 1.3642 1.71998 1.19377 2.04927C1 2.42361 1 2.91366 1 3.89375V4.59375M1 4.59375V12.2937C1 13.2738 1 13.7639 1.19377 14.1383C1.3642 14.4675 1.63617 14.7353 1.97068 14.903C2.35097 15.0937 2.84879 15.0938 3.84444 15.0938H14.1556C15.1512 15.0938 15.6491 15.0937 16.0293 14.903C16.3638 14.7353 16.6358 14.4675 16.8062 14.1383C17 13.7639 17 13.2738 17 12.2937V7.39375C17 6.41366 17 5.92361 16.8062 5.54927C16.6358 5.21998 16.3638 4.95226 16.0293 4.78449C15.6491 4.59375 15.1512 4.59375 14.1556 4.59375H1ZM17 8.09375H15.2222C14.2404 8.09375 13.4444 8.87723 13.4444 9.84375C13.4444 10.8103 14.2404 11.5938 15.2222 11.5938H17" stroke="white" stroke-linecap="round" stroke-linejoin="round"/>
</svg>
