<svg width="12" height="12" viewBox="0 0 12 12" fill="none" xmlns="http://www.w3.org/2000/svg">
<path d="M7.4999 11V9C7.56946 8.37364 7.38986 7.74506 6.9999 7.25C8.4999 7.25 9.9999 6.25 9.9999 4.5C10.0399 3.875 9.8649 3.26 9.4999 2.75C9.6399 2.175 9.6399 1.575 9.4999 1C9.4999 1 8.9999 1 7.9999 1.75C6.6799 1.5 5.3199 1.5 3.9999 1.75C2.9999 1 2.4999 1 2.4999 1C2.3499 1.575 2.3499 2.175 2.4999 2.75C2.13583 3.25794 1.95913 3.87639 1.9999 4.5C1.9999 6.25 3.4999 7.25 4.9999 7.25C4.8049 7.495 4.6599 7.775 4.5749 8.075C4.4899 8.375 4.4649 8.69 4.4999 9V11" stroke="white" stroke-linecap="round" stroke-linejoin="round"/>
<path d="M4.5 9C2.245 10 2 8 1 8" stroke="white" stroke-linecap="round" stroke-linejoin="round"/>
</svg>
