<svg width="24" height="24" viewBox="0 0 24 24" fill="none" xmlns="http://www.w3.org/2000/svg">
<g clip-path="url(#clip0_2_178)">
<path d="M12 8C10.9391 8 9.92172 8.42143 9.17157 9.17157C8.42143 9.92172 8 10.9391 8 12C8 13.0609 8.42143 14.0783 9.17157 14.8284C9.92172 15.5786 10.9391 16 12 16C13.0609 16 14.0783 15.5786 14.8284 14.8284C15.5786 14.0783 16 13.0609 16 12C16 10.9391 15.5786 9.92172 14.8284 9.17157C14.0783 8.42143 13.0609 8 12 8Z" fill="white"/>
<path fill-rule="evenodd" clip-rule="evenodd" d="M7.2 0C5.29044 0 3.45909 0.758569 2.10883 2.10883C0.758569 3.45909 0 5.29044 0 7.2L0 16.8C0 18.7096 0.758569 20.5409 2.10883 21.8912C3.45909 23.2414 5.29044 24 7.2 24H16.8C18.7096 24 20.5409 23.2414 21.8912 21.8912C23.2414 20.5409 24 18.7096 24 16.8V7.2C24 5.29044 23.2414 3.45909 21.8912 2.10883C20.5409 0.758569 18.7096 0 16.8 0L7.2 0ZM6.4 12C6.4 10.5148 6.99 9.09041 8.0402 8.0402C9.09041 6.99 10.5148 6.4 12 6.4C13.4852 6.4 14.9096 6.99 15.9598 8.0402C17.01 9.09041 17.6 10.5148 17.6 12C17.6 13.4852 17.01 14.9096 15.9598 15.9598C14.9096 17.01 13.4852 17.6 12 17.6C10.5148 17.6 9.09041 17.01 8.0402 15.9598C6.99 14.9096 6.4 13.4852 6.4 12ZM17.6 6.4H19.2V4.8H17.6V6.4Z" fill="white"/>
</g>
<defs>
<clipPath id="clip0_2_178">
<rect width="24" height="24" fill="white"/>
</clipPath>
</defs>
</svg>
