<svg width="24" height="24" viewBox="0 0 24 24" fill="none" xmlns="http://www.w3.org/2000/svg">
<path d="M7.539 22.4999C16.596 22.4999 21.5505 14.9954 21.5505 8.49894C21.5505 8.28894 21.5505 8.07594 21.5415 7.86594C22.5061 7.16767 23.3386 6.30317 24 5.31294C23.099 5.71022 22.1441 5.97205 21.1665 6.08994C22.1963 5.4744 22.9676 4.50589 23.337 3.36444C22.3695 3.93763 21.3105 4.34 20.2065 4.55394C19.4643 3.76348 18.4821 3.23982 17.4121 3.06408C16.3421 2.88834 15.2441 3.07032 14.288 3.58185C13.3319 4.09337 12.5712 4.90588 12.1237 5.89353C11.6761 6.88118 11.5668 7.98884 11.8125 9.04494C9.85461 8.94677 7.93922 8.43814 6.19056 7.55206C4.4419 6.66597 2.89903 5.42221 1.662 3.90144C1.03401 4.98607 0.842361 6.26904 1.12597 7.48984C1.40958 8.71064 2.14718 9.77774 3.189 10.4744C2.40831 10.4479 1.64478 10.2383 0.96 9.86244V9.92994C0.961346 11.0662 1.35496 12.1671 2.07431 13.0466C2.79366 13.9261 3.79462 14.5303 4.908 14.7569C4.48539 14.8734 4.04884 14.9314 3.6105 14.9294C3.30148 14.9304 2.99307 14.9017 2.6895 14.8439C3.00418 15.822 3.61691 16.6772 4.44187 17.2897C5.26683 17.9021 6.2627 18.2412 7.29 18.2594C5.54483 19.6301 3.3891 20.3736 1.17 20.3699C0.778981 20.3716 0.388235 20.349 0 20.3024C2.25227 21.7383 4.86795 22.5008 7.539 22.4999Z" fill="white"/>
</svg>
