<svg width="48" height="48" viewBox="0 0 48 48" fill="none" xmlns="http://www.w3.org/2000/svg">
<rect width="48" height="48" rx="16" fill="none"/>
<path d="M30.9443 25.4935C30.8665 25.3366 30.9079 25.1633 30.9079 24.9988C30.9042 22.8704 30.9067 20.742 30.9042 18.6136C30.9042 18.3637 30.9205 18.1101 30.7975 17.879C30.6042 17.5161 30.3017 17.3252 29.8875 17.3227C29.3716 17.3202 28.8545 17.3152 28.3386 17.3215C27.5667 17.3303 27.1926 17.702 27.1914 18.4817C27.1863 20.6101 27.1889 22.7385 27.1889 24.8669C27.1889 25.54 27.1914 26.213 27.1889 26.8861C27.1863 27.539 27.032 27.7726 26.4194 28.0187C26.2349 28.0928 26.063 28.2159 25.8458 28.2121C25.773 28.0438 25.8107 27.8718 25.8094 27.7061C25.8069 25.5312 25.8082 23.3551 25.8069 21.1802C25.8069 20.1907 25.4818 19.8718 24.4764 19.8693C24.0384 19.868 23.6003 19.8605 23.1623 19.8718C22.546 19.8881 22.1694 20.2272 22.0891 20.8324C22.069 20.9868 22.0728 21.1451 22.0728 21.3008C22.0715 23.6326 22.0728 25.9644 22.0715 28.2962C22.0715 29.4376 21.9171 29.6147 20.7598 29.7993C20.6883 29.6348 20.7234 29.4615 20.7234 29.2932C20.7209 27.4311 20.7234 25.5689 20.7209 23.7054C20.7197 22.7837 20.367 22.4271 19.4494 22.4158C19.0277 22.4108 18.6047 22.4033 18.1817 22.4045C17.3784 22.4058 16.9793 22.8038 16.978 23.6213C16.9742 25.4835 16.9767 27.3457 16.9767 29.2091C16.9767 29.3975 16.9818 29.5846 16.9742 29.7729C16.9542 30.2413 16.7169 30.5502 16.26 30.6218C15.768 30.6984 15.2697 30.785 14.7689 30.7398C14.2154 30.6896 13.8112 30.4045 13.5388 29.9136C12.7317 28.4582 12.2485 26.9087 12.0703 25.2512C11.8481 23.1793 12.1544 21.1928 12.9665 19.2879C13.8263 17.2713 15.1643 15.6175 16.9265 14.3204C19.1746 12.6654 21.7138 11.8906 24.494 12.0124C27.952 12.1644 30.8213 13.5896 33.0957 16.2001C34.0722 17.3202 34.7902 18.596 35.2835 19.9986C35.4969 20.6051 35.4391 21.1777 35.0513 21.6888C33.9241 23.1717 32.5459 24.3935 31.0485 25.486C31.0322 25.4998 30.9945 25.491 30.9443 25.4935Z" fill="#E882D5"/>
<path d="M17.0527 33.7199C18.4761 33.4424 19.8417 33.2089 21.181 32.8422C24.8938 31.8276 28.3669 30.3082 31.437 27.9513C33.0813 26.6893 34.5449 25.2415 35.7323 23.53C35.785 23.4547 35.8415 23.3831 35.9481 23.3203C36.0938 24.6652 35.9193 25.9836 35.5515 27.2682C34.7859 29.9453 33.2683 32.1277 31.004 33.7438C26.3737 37.0475 20.6413 36.4498 17.0527 33.7199Z" fill="white"/>
</svg>
