<svg width="48" height="48" viewBox="0 0 48 48" fill="none" xmlns="http://www.w3.org/2000/svg">
<rect width="48" height="48" rx="16" fill="none"/>
<path d="M30.9443 26.4935C30.8665 26.3366 30.9079 26.1633 30.9079 25.9988C30.9042 23.8704 30.9067 21.742 30.9042 19.6136C30.9042 19.3637 30.9205 19.1101 30.7975 18.879C30.6042 18.5161 30.3017 18.3252 29.8875 18.3227C29.3716 18.3202 28.8545 18.3152 28.3386 18.3215C27.5667 18.3303 27.1926 18.702 27.1914 19.4817C27.1863 21.6101 27.1889 23.7385 27.1889 25.8669C27.1889 26.54 27.1914 27.213 27.1889 27.8861C27.1863 28.539 27.032 28.7726 26.4194 29.0187C26.2349 29.0928 26.063 29.2159 25.8458 29.2121C25.773 29.0438 25.8107 28.8718 25.8094 28.7061C25.8069 26.5312 25.8082 24.3551 25.8069 22.1802C25.8069 21.1907 25.4818 20.8718 24.4764 20.8693C24.0384 20.868 23.6003 20.8605 23.1623 20.8718C22.546 20.8881 22.1694 21.2272 22.0891 21.8324C22.069 21.9868 22.0728 22.1451 22.0728 22.3008C22.0715 24.6326 22.0728 26.9644 22.0715 29.2962C22.0715 30.4376 21.9171 30.6147 20.7598 30.7993C20.6883 30.6348 20.7234 30.4615 20.7234 30.2932C20.7209 28.4311 20.7234 26.5689 20.7209 24.7054C20.7197 23.7837 20.367 23.4271 19.4494 23.4158C19.0277 23.4108 18.6047 23.4033 18.1817 23.4045C17.3784 23.4058 16.9793 23.8038 16.978 24.6213C16.9742 26.4835 16.9767 28.3457 16.9767 30.2091C16.9767 30.3975 16.9818 30.5846 16.9742 30.7729C16.9542 31.2413 16.7169 31.5502 16.26 31.6218C15.768 31.6984 15.2697 31.785 14.7689 31.7398C14.2154 31.6896 13.8112 31.4045 13.5388 30.9136C12.7317 29.4582 12.2485 27.9087 12.0703 26.2512C11.8481 24.1793 12.1544 22.1928 12.9665 20.2879C13.8263 18.2713 15.1643 16.6175 16.9265 15.3204C19.1746 13.6654 21.7138 12.8906 24.494 13.0124C27.952 13.1644 30.8213 14.5896 33.0957 17.2001C34.0722 18.3202 34.7902 19.596 35.2835 20.9986C35.4969 21.6051 35.4391 22.1777 35.0513 22.6888C33.9241 24.1717 32.5459 25.3935 31.0485 26.486C31.0322 26.4998 30.9945 26.491 30.9443 26.4935Z" fill="#E882D5"/>
<path d="M17.0527 34.7199C18.4761 34.4424 19.8417 34.2089 21.181 33.8422C24.8938 32.8276 28.3669 31.3082 31.437 28.9513C33.0813 27.6893 34.5449 26.2415 35.7323 24.53C35.785 24.4547 35.8415 24.3831 35.9481 24.3203C36.0938 25.6652 35.9193 26.9836 35.5515 28.2682C34.7859 30.9453 33.2683 33.1277 31.004 34.7438C26.3737 38.0475 20.6413 37.4498 17.0527 34.7199Z" fill="#888888"/>
</svg>
