<svg width="16" height="16" viewBox="0 0 16 16" fill="none" xmlns="http://www.w3.org/2000/svg">
<path d="M12.4444 4.44444C12.0937 4.43545 11.7597 4.29208 11.5116 4.04396C11.2635 3.79583 11.1201 3.4619 11.1111 3.11111C11.1111 2.75749 11.2516 2.41835 11.5016 2.1683C11.7517 1.91825 12.0908 1.77778 12.4444 1.77778C12.7981 1.77778 13.1372 1.91825 13.3873 2.1683C13.6373 2.41835 13.7778 2.75749 13.7778 3.11111C13.7688 3.4619 13.6254 3.79583 13.3773 4.04396C13.1292 4.29208 12.7952 4.43545 12.4444 4.44444ZM11.1111 0C9.81809 0.0115973 8.58131 0.530399 7.66696 1.44474C6.75262 2.35908 6.23382 3.59587 6.22222 4.88889C6.24942 5.75345 6.4616 6.60213 6.84444 7.37778L0 14.2222V16H3.55556V14.2222H5.33333V12.4444H7.11111L9.95556 9.6C10.3328 9.70251 10.7205 9.76215 11.1111 9.77778C12.4041 9.76618 13.6409 9.24738 14.5553 8.33304C15.4696 7.41869 15.9884 6.18191 16 4.88889C15.9884 3.59587 15.4696 2.35908 14.5553 1.44474C13.6409 0.530399 12.4041 0.0115973 11.1111 0Z" fill="#CCA541"/>
</svg>
