<svg width="16" height="16" viewBox="0 0 16 16" fill="none" xmlns="http://www.w3.org/2000/svg">
<path d="M12.375 7.625H3.625C2.93464 7.625 2.375 8.18464 2.375 8.875V13.25C2.375 13.9404 2.93464 14.5 3.625 14.5H12.375C13.0654 14.5 13.625 13.9404 13.625 13.25V8.875C13.625 8.18464 13.0654 7.625 12.375 7.625Z" stroke="white" stroke-width="0.975" stroke-linecap="round" stroke-linejoin="round"/>
<path d="M4.875 7.625V5.125C4.875 4.2962 5.20424 3.50134 5.79029 2.91529C6.37634 2.32924 7.1712 2 8 2C8.8288 2 9.62366 2.32924 10.2097 2.91529C10.7958 3.50134 11.125 4.2962 11.125 5.125V7.625" stroke="white" stroke-width="0.975" stroke-linecap="round" stroke-linejoin="round"/>
</svg>
